HIERARCHY
ROOT Hips
{
	OFFSET 0.000000 0.000000 0.000000
	CHANNELS 6 Xposition Yposition Zposition Zrotation Yrotation Xrotation 
	JOINT LHipJoint
	{
		OFFSET 0.000000 0.000000 0.000000
		CHANNELS 3 Zrotation Yrotation Xrotation
		JOINT LeftUpLeg
		{
			OFFSET 1.363060 -1.794630 0.839290
			CHANNELS 3 Zrotation Yrotation Xrotation
			JOINT LeftLeg
			{
				OFFSET 2.448110 -6.726130 0.000000
				CHANNELS 3 Zrotation Yrotation Xrotation
				JOINT LeftFoot
				{
					OFFSET 2.562200 -7.039590 0.000000
					CHANNELS 3 Zrotation Yrotation Xrotation
					JOINT LeftToeBase
					{
						OFFSET 0.157640 -0.433110 2.322550
						CHANNELS 3 Zrotation Yrotation Xrotation
						End Site
						{
							OFFSET 0.000000 0.000000 0.000000
						}
					}
				}
			}
		}
	}
	JOINT RHipJoint
	{
		OFFSET 0.000000 0.000000 0.000000
		CHANNELS 3 Zrotation Yrotation Xrotation
		JOINT RightUpLeg
		{
			OFFSET -1.305520 -1.794630 0.839290
			CHANNELS 3 Zrotation Yrotation Xrotation
			JOINT RightLeg
			{
				OFFSET -2.542530 -6.985550 0.000000
				CHANNELS 3 Zrotation Yrotation Xrotation
				JOINT RightFoot
				{
					OFFSET -2.568260 -7.056230 0.000000
					CHANNELS 3 Zrotation Yrotation Xrotation
					JOINT RightToeBase
					{
						OFFSET -0.164730 -0.452590 2.363150
						CHANNELS 3 Zrotation Yrotation Xrotation
						End Site
						{
							OFFSET 0.000000 0.000000 0.000000
						}
					}
				}
			}
		}
	}
	JOINT LowerBack
	{
		OFFSET 0.000000 0.000000 0.000000
		CHANNELS 3 Zrotation Yrotation Xrotation
		JOINT Spine
		{
			OFFSET 0.028270 2.035590 -0.193380
			CHANNELS 3 Zrotation Yrotation Xrotation
			JOINT Spine1
			{
				OFFSET 0.056720 2.048850 -0.042750
				CHANNELS 3 Zrotation Yrotation Xrotation
				JOINT Neck
				{
					OFFSET 0.000000 0.000000 0.000000
					CHANNELS 3 Zrotation Yrotation Xrotation
					JOINT Neck1
					{
						OFFSET -0.054170 1.746240 0.172020
						CHANNELS 3 Zrotation Yrotation Xrotation
						JOINT Head
						{
							OFFSET 0.104070 1.761360 -0.123970
							CHANNELS 3 Zrotation Yrotation Xrotation
							End Site
							{
								OFFSET 0.000000 0.000000 0.000000
							}
						}
					}
				}
				JOINT LeftShoulder
				{
					OFFSET 0.000000 0.000000 0.000000
					CHANNELS 3 Zrotation Yrotation Xrotation
					JOINT LeftArm
					{
						OFFSET 3.362410 1.200890 -0.311210
						CHANNELS 3 Zrotation Yrotation Xrotation
						JOINT LeftForeArm
						{
							OFFSET 4.983000 -0.000000 -0.000000
							CHANNELS 3 Zrotation Yrotation Xrotation
							JOINT LeftHand
							{
								OFFSET 3.483560 -0.000000 -0.000000
								CHANNELS 3 Zrotation Yrotation Xrotation
								JOINT LeftFingerBase
								{
									OFFSET 0.000000 0.000000 0.000000
									CHANNELS 3 Zrotation Yrotation Xrotation
									JOINT LeftHandIndex1
									{
										OFFSET 0.715260 -0.000000 -0.000000
										CHANNELS 3 Zrotation Yrotation Xrotation
										End Site
										{
											OFFSET 0.000000 0.000000 0.000000
										}
									}
								}
								JOINT LThumb
								{
									OFFSET 0.000000 0.000000 0.000000
									CHANNELS 3 Zrotation Yrotation Xrotation
									End Site
									{
										OFFSET 0.000000 0.000000 0.000000
									}
								}
							}
						}
					}
				}
				JOINT RightShoulder
				{
					OFFSET 0.000000 0.000000 0.000000
					CHANNELS 3 Zrotation Yrotation Xrotation
					JOINT RightArm
					{
						OFFSET -3.136600 1.374050 -0.404650
						CHANNELS 3 Zrotation Yrotation Xrotation
						JOINT RightForeArm
						{
							OFFSET -5.241900 -0.000000 -0.000000
							CHANNELS 3 Zrotation Yrotation Xrotation
							JOINT RightHand
							{
								OFFSET -3.444170 -0.000000 -0.000000
								CHANNELS 3 Zrotation Yrotation Xrotation
								JOINT RightFingerBase
								{
									OFFSET 0.000000 0.000000 0.000000
									CHANNELS 3 Zrotation Yrotation Xrotation
									JOINT RightHandIndex1
									{
										OFFSET -0.622530 -0.000000 -0.000000
										CHANNELS 3 Zrotation Yrotation Xrotation
										End Site
										{
											OFFSET 0.000000 0.000000 0.000000
										}
									}
								}
								JOINT RThumb
								{
									OFFSET 0.000000 0.000000 0.000000
									CHANNELS 3 Zrotation Yrotation Xrotation
									End Site
									{
										OFFSET 0.000000 0.000000 0.000000
									}
								}
							}
						}
					}
				}
			}
		}
	}
}
MOTION
Frames: 8
Frame Time: 0.008333
1.986035 17.159386 0.477797 144.756019 86.461687 176.539607 -10.318964 0.119297 -0.970081 -10.385406 -0.726367 -43.820536 -0.493492 2.616291 52.044040 2.786858 15.124106 -8.315180 0.154300 -0.000000 -14.725400 8.923049 -0.509644 0.126289 10.214276 4.198631 -31.043021 2.103152 -0.803194 27.073035 -1.635007 -4.399401 -12.887030 0.279000 0.000000 -40.385100 6.754102 -1.160154 2.914736 0.693129 -1.432152 -2.128734 -5.735636 -1.571287 1.224902 12.751898 4.906654 4.566102 -3.446276 -0.342637 2.919422 0.000000 0.000000 0.000000 -6.940372 -7.197540 1.830067 -71.681998 -26.573517 2.290252 -1.859970 -2.649067 -0.046158 20.459847 3.911182 0.689134 -0.103546 0.111244 0.000000 0.000000 0.000000 0.000000 0.000000 0.000000 0.000000 17.639929 1.630152 -0.029621 70.735796 22.447534 -0.521000 3.305609 16.404308 0.009220 6.489924 5.224007 0.299808 0.013256 -0.067525 -0.000000 0.000000 0.000000 0.000000 0.000000 0.000000 0.000000 
2.236169 17.227751 0.502894 140.882542 86.278297 172.774207 -10.113376 0.031987 -0.739067 -10.761448 -1.338899 -44.603096 -0.676858 2.422703 49.641817 2.762002 14.614390 -8.727725 0.079100 0.000000 -14.755600 9.070680 -0.637286 0.020313 9.963386 3.501173 -29.861343 2.080984 -0.778465 25.808272 -1.416062 -4.027233 -10.732166 0.021600 0.000000 -43.150500 6.267944 -1.104227 2.776502 0.582069 -1.366154 -2.170954 -5.699499 -1.503847 1.215488 12.434849 4.804748 4.337416 -3.491995 -0.344804 2.859484 0.000000 0.000000 0.000000 -6.810803 -6.833404 1.966249 -70.500606 -24.214937 2.151545 -1.951562 -3.138513 -0.044858 20.069792 5.746819 1.004024 -0.097206 0.101931 0.000000 0.000000 0.000000 0.000000 0.000000 0.000000 0.000000 17.555486 1.705890 -0.084064 72.218125 22.983140 3.880747 3.340374 17.416185 0.008899 7.796800 4.801113 0.331791 0.001384 -0.062181 -0.000000 0.000000 0.000000 0.000000 0.000000 0.000000 0.000000 
2.487049 17.293920 0.527119 136.666544 86.160910 168.676645 -9.923295 -0.053548 -0.518692 -11.126456 -1.852975 -45.277430 -0.881627 2.211179 46.976219 2.736831 14.099481 -9.088043 0.022700 0.000000 -14.948799 9.200924 -0.771677 -0.075511 9.699299 2.888180 -28.777175 2.046650 -0.774695 24.686140 -1.212789 -3.671392 -8.525186 -0.204200 -0.000000 -45.963500 5.739894 -1.031074 2.650350 0.457015 -1.279828 -2.208091 -5.682471 -1.415686 1.212726 12.163137 4.675317 4.107340 -3.541704 -0.347267 2.798574 0.000000 0.000000 0.000000 -6.663837 -6.436685 2.095178 -69.331593 -22.240346 2.358425 -2.078788 -3.046561 -0.042836 19.212961 7.111925 1.194221 -0.092760 0.095012 0.000000 0.000000 0.000000 0.000000 0.000000 0.000000 0.000000 17.559544 1.780602 -0.132868 73.550112 23.508183 8.425340 3.327590 18.710482 0.008476 8.842366 4.403648 0.345772 -0.010598 -0.058417 -0.000000 0.000000 0.000000 0.000000 0.000000 0.000000 0.000000 
2.738561 17.357513 0.550573 131.872461 86.101867 164.010370 -9.752770 -0.138729 -0.311489 -11.481183 -2.268241 -45.833531 -1.107817 1.979069 44.043914 2.708933 13.577698 -9.375575 -0.011600 0.000000 -15.294800 9.308846 -0.909287 -0.165391 9.423868 2.366191 -27.772785 2.001595 -0.787739 23.692355 -1.031296 -3.344183 -6.302581 -0.394900 0.000000 -48.827200 5.158864 -0.943008 2.546300 0.317589 -1.174352 -2.239483 -5.677988 -1.307710 1.211409 11.939597 4.513315 3.867491 -3.597249 -0.349974 2.734016 0.000000 0.000000 0.000000 -6.515034 -5.948031 2.201896 -68.202953 -20.341956 1.721456 -2.205175 -3.122665 -0.040211 18.043862 7.805059 1.232136 -0.088738 0.090772 0.000000 0.000000 0.000000 0.000000 0.000000 0.000000 0.000000 17.657483 1.846671 -0.178179 74.716936 24.046290 13.034461 3.270146 20.244935 0.008183 9.600974 4.093690 0.349651 -0.022225 -0.056948 -0.000000 0.000000 0.000000 0.000000 0.000000 0.000000 0.000000 
2.990840 17.418117 0.573348 126.237695 86.084763 158.501539 -9.608354 -0.222877 -0.112813 -11.827857 -2.587619 -46.258557 -1.353814 1.722531 40.844525 2.675602 13.052351 -9.559270 -0.018000 0.000001 -15.774700 9.389246 -1.049806 -0.248752 9.137221 1.934665 -26.822288 1.946830 -0.812510 22.805031 -0.874984 -3.055202 -4.085210 -0.551600 -0.000001 -51.754900 4.528283 -0.834292 2.455878 0.164452 -1.045136 -2.266417 -5.685134 -1.175691 1.212584 11.759976 4.344902 3.638864 -3.651434 -0.352777 2.671900 0.000000 0.000000 0.000000 -6.367226 -5.451474 2.301682 -67.036110 -18.857548 1.917880 -2.375829 -2.535353 -0.037012 16.460397 8.109262 1.167955 -0.087873 0.086788 0.000000 0.000000 0.000000 0.000000 0.000000 0.000000 0.000000 17.816469 1.923425 -0.222883 75.741933 24.591332 17.521483 3.169343 21.941529 0.008168 10.058719 3.916270 0.351232 -0.033294 -0.058436 -0.000000 0.000000 0.000000 0.000000 0.000000 0.000000 0.000000 
3.243893 17.475039 0.595416 119.521811 86.098939 151.905791 -9.492201 -0.302321 0.077036 -12.163241 -2.811823 -46.550971 -1.617037 1.441019 37.393033 2.634131 12.530754 -9.606101 0.008800 0.000000 -16.357100 9.441182 -1.185599 -0.331848 8.842829 1.590585 -25.902471 1.882692 -0.843533 22.006388 -0.744487 -2.808877 -1.883617 -0.678400 -0.000000 -54.751200 3.843179 -0.705830 2.386471 -0.001787 -0.892561 -2.288127 -5.697531 -1.019756 1.213409 11.617313 4.161356 3.413173 -3.704497 -0.355550 2.609727 0.000000 0.000000 0.000000 -6.225889 -4.888175 2.380942 -65.864414 -17.520018 2.010969 -2.560892 -1.928129 -0.033262 14.635778 7.901279 1.011183 -0.088650 0.083327 0.000000 0.000000 0.000000 0.000000 0.000000 0.000000 0.000000 18.021799 2.002160 -0.270173 76.653118 25.169045 21.803721 3.036458 23.733032 0.008513 10.209287 3.910560 0.356719 -0.043015 -0.063410 -0.000000 0.000000 0.000000 0.000000 0.000000 0.000000 0.000000 
3.497907 17.527537 0.616767 111.528833 86.127933 144.018599 -9.403158 -0.371107 0.261533 -12.482576 -2.941131 -46.717150 -1.892086 1.134308 33.721118 2.581684 12.021429 -9.484832 0.073200 -0.000000 -17.000900 9.468649 -1.310513 -0.416312 8.546013 1.327497 -24.992030 1.809232 -0.875854 21.280651 -0.638255 -2.604802 0.302969 -0.780700 0.000000 -57.799300 3.115887 -0.552110 2.332156 -0.177887 -0.712213 -2.307055 -5.712049 -0.835758 1.209380 11.499957 3.982719 3.204229 -3.750808 -0.358130 2.551652 0.000000 0.000000 0.000000 -6.092780 -4.299719 2.443480 -64.673173 -16.421231 2.641595 -2.770803 -1.015999 -0.028914 12.596877 7.260728 0.799117 -0.091672 0.079357 0.000000 0.000000 0.000000 0.000000 0.000000 0.000000 0.000000 18.230494 2.099633 -0.322841 77.498889 25.760112 25.745559 2.880842 25.560098 0.009167 10.068958 4.083945 0.368214 -0.050906 -0.072083 -0.000000 0.000000 0.000000 0.000000 0.000000 0.000000 0.000000 
3.753126 17.574779 0.637194 102.243956 86.155443 134.821845 -9.331986 -0.422712 0.441455 -12.777274 -2.974189 -46.779838 -2.171042 0.804512 29.886077 2.515180 11.527839 -9.175880 0.176299 -0.000000 -17.664400 9.484228 -1.416772 -0.503293 8.256809 1.137486 -24.078719 1.726676 -0.905969 20.618471 -0.553375 -2.437836 2.479452 -0.863300 -0.000000 -60.849900 2.367576 -0.370935 2.289510 -0.358412 -0.502876 -2.324328 -5.726006 -0.622567 1.199770 11.396281 3.796154 3.009885 -3.789384 -0.360430 2.497318 0.000000 0.000000 0.000000 -5.962491 -3.682456 2.483856 -63.488425 -15.469210 3.601640 -2.991095 0.033475 -0.023955 10.486217 6.176609 0.565455 -0.096278 0.074662 0.000000 0.000000 0.000000 0.000000 0.000000 0.000000 0.000000 18.417773 2.200901 -0.382692 78.321982 26.375605 29.333424 2.715001 27.367999 0.009994 9.658043 4.450198 0.385618 -0.056258 -0.084483 0.000000 0.000000 0.000000 0.000000 0.000000 0.000000 0.000000 
